<?xml version="1.0" encoding="UTF-8"?><svg xmlns="http://www.w3.org/2000/svg" viewBox="0 0 508.1 215.05"><defs><style>.cls-1{fill:#fff;}.cls-2{fill:#1d1d1b;}</style></defs><g id="HG_farbig"><rect class="cls-2" width="508.1" height="215.05"/></g><g id="Logo"><g><path class="cls-1" d="M234.45,97.78v-14.01c0-.52-.29-.78-.78-.78h-1.89c-.46,0-.75,.29-.75,.78v14.37c0,4.43,2.28,7,7.1,7s7.17-2.48,7.17-7v-14.37c0-.49-.33-.78-.78-.78h-1.86c-.49,0-.81,.26-.81,.78v14.2c0,3.32-1.37,4.3-3.78,4.3-2.67,0-3.61-1.63-3.61-4.49h0Z"/><path class="cls-1" d="M272.13,68.37c3.21,0,4.85-2.32,4.85-7.05s-1.66-7.17-4.85-7.17-4.89,2.47-4.89,7.17,1.66,7.05,4.89,7.05h0Zm-.02-12.45c2.14,0,2.59,2.36,2.59,5.35,0,3.23-.54,5.28-2.59,5.28s-2.57-1.78-2.57-5.28c0-2.76,.27-5.35,2.57-5.35h0Z"/><path class="cls-1" d="M438.49,121.05h-5.5c-.42,0-.78,.36-.78,.78v1.53c0,.42,.36,.78,.78,.78h2.87v6.42c-.65,.19-1.34,.29-2.09,.29-3.45,0-5.51-2.08-5.51-7.95s1.76-8.27,5.25-8.27c1.69,0,2.83,.39,3.98,.94,.39,.2,.78,0,.94-.36l.65-1.4c.2-.39,.07-.78-.36-1.01-1.43-.75-3.29-1.24-5.21-1.24-5.67,0-8.93,4.33-8.93,11.11s2.67,11.24,8.86,11.24c1.76,0,3.58-.32,4.82-.78,.78-.29,1.01-.62,1.01-1.37v-9.93c0-.42-.36-.78-.78-.78h0Z"/><path class="cls-1" d="M255.64,56.27h2.94v11.48c0,.27,.23,.5,.5,.5h1.21c.27,0,.5-.23,.5-.5v-11.48h2.94c.27,0,.48-.21,.48-.47v-1.02c0-.27-.21-.5-.48-.5h-8.09c-.27,0-.52,.22-.52,.5v1.02c0,.27,.25,.47,.52,.47h0Z"/><path class="cls-1" d="M416.53,81.26c1.08,0,1.92-.88,1.92-1.95s-.88-1.89-1.95-1.89c-1.01,0-1.86,.82-1.86,1.89s.85,1.95,1.89,1.95h0Z"/><path class="cls-1" d="M235.32,68.37c3.21,0,4.85-2.32,4.85-7.05s-1.66-7.17-4.85-7.17-4.89,2.47-4.89,7.17,1.66,7.05,4.89,7.05h0Zm-.02-12.45c2.14,0,2.59,2.36,2.59,5.35,0,3.23-.54,5.28-2.59,5.28s-2.57-1.78-2.57-5.28c0-2.76,.27-5.35,2.57-5.35h0Z"/><path class="cls-1" d="M251.6,54.28h-8.08c-.27,0-.52,.22-.52,.5v1.02c0,.27,.25,.47,.52,.47h2.94v11.48c0,.27,.23,.5,.5,.5h1.2c.27,0,.5-.23,.5-.5v-11.48h2.94c.27,0,.48-.21,.48-.47v-1.02c0-.27-.2-.5-.48-.5h0Z"/><path class="cls-1" d="M264.04,104.32c.16,.39,.46,.62,.88,.62h3.06c.42,0,.81-.36,.81-.75v-20.46c0-.39-.39-.75-.81-.75h-1.66c-.42,0-.78,.36-.78,.75l.03,12.67c0,1.53,.16,3.55,.33,5.24-.46-1.59-.85-3.19-1.44-4.62l-5.51-13.46c-.16-.36-.62-.58-1.04-.58h-3.06c-.42,0-.78,.33-.78,.75v20.46c0,.39,.36,.75,.78,.75h1.73c.42,0,.78-.36,.78-.75l-.03-12.9c0-1.21-.29-3.81-.46-5.47,.42,1.66,.85,3.49,1.44,4.86l5.73,13.65h0Z"/><path class="cls-1" d="M250.51,111.76h-3.69c-.41,0-.85,.29-.95,.65l-4.25,14.93c-.21,.81-.33,2.19-.43,3.31-.1-1.12-.23-2.5-.43-3.31l-4.25-14.93c-.1-.36-.55-.65-.95-.65h-3.7c-.44,0-.82,.32-.82,.75v20.45c0,.39,.38,.75,.82,.75h1.67c.41,0,.78-.32,.82-.75l-.05-13.67c0-.78-.17-3.64-.21-4.52,.27,1.13,.65,3.06,1,4.48l4.02,13.71c.1,.46,.51,.75,.95,.75h2.28c.44,0,.85-.3,.96-.75l4.03-13.71c.35-1.43,.73-3.36,1-4.48-.05,.88-.21,3.74-.22,4.52l-.05,13.67c.03,.43,.41,.75,.82,.75h1.66c.44,0,.82-.36,.82-.75v-20.45c0-.42-.37-.75-.82-.75h0Z"/><path class="cls-1" d="M439.11,82.99h-12.7c-.43,0-.81,.36-.81,.78v1.6c0,.42,.39,.75,.81,.75h4.63v18.05c0,.42,.36,.78,.78,.78h1.89c.43,0,.79-.36,.79-.78v-18.05h4.62c.42,0,.75-.33,.75-.75v-1.6c0-.42-.32-.78-.75-.78h0Z"/><path class="cls-1" d="M398.36,68.25h1.28c.27,0,.5-.23,.5-.5v-12.97c0-.27-.23-.5-.5-.5h-1.28c-.27,0-.5,.23-.5,.5v12.97c0,.27,.23,.5,.5,.5h0Z"/><path class="cls-1" d="M408,79.31c0,1.07,.85,1.95,1.89,1.95s1.92-.88,1.92-1.95-.88-1.89-1.96-1.89c-1.01,0-1.86,.82-1.86,1.89h0Z"/><path class="cls-1" d="M432.16,68.25h6.59c.27,0,.52-.23,.52-.5v-1.01c0-.27-.25-.5-.52-.5h-4.89v-4.44h4.23c.27,0,.52-.23,.52-.52v-.87c0-.27-.25-.47-.52-.47h-4.23v-3.71h4.73c.29,0,.5-.25,.5-.52v-.93c0-.27-.23-.5-.5-.5h-6.42c-.27,0-.5,.23-.5,.5v12.97c0,.27,.23,.5,.5,.5h0Z"/><path class="cls-1" d="M410.87,68.38c1.14,0,1.99-.23,2.71-.6,.19-.08,.31-.33,.19-.6l-.46-1c-.08-.21-.33-.29-.58-.19-.42,.19-1.12,.39-1.62,.39-2.01,0-3.38-1.47-3.38-5.16s1.28-5.14,3.38-5.14c.58,0,1.08,.15,1.53,.35,.27,.12,.47,.04,.6-.19l.43-.85c.15-.27,.04-.54-.21-.68-.76-.46-1.72-.56-2.52-.56-3.36,0-5.53,2.75-5.53,7.05,0,4.62,2.05,7.17,5.45,7.17h0Z"/><path class="cls-1" d="M293.86,68.25h1.58c.27,0,.54-.19,.62-.45l3.71-12.95c.08-.29-.08-.56-.4-.56h-1.24c-.33,0-.54,.19-.62,.52l-2.39,9.37c-.16,.66-.31,1.76-.43,2.72-.08-.95-.27-2.05-.44-2.72l-2.38-9.39c-.08-.33-.31-.5-.64-.5h-1.43c-.31,0-.48,.27-.4,.58l3.83,12.93c.08,.27,.35,.45,.62,.45h0Z"/><path class="cls-1" d="M360.52,68.37c2.98,0,4.56-1.57,4.56-4.45v-9.14c0-.31-.21-.5-.5-.5h-1.18c-.31,0-.52,.16-.52,.5v9.04c0,2.11-.87,2.74-2.4,2.74-1.7,0-2.3-1.03-2.3-2.86v-8.91c0-.33-.19-.5-.5-.5h-1.2c-.29,0-.48,.18-.48,.5v9.14c0,2.82,1.45,4.45,4.52,4.45h0Z"/><path class="cls-1" d="M384.34,68.25h1.2c.27,0,.5-.23,.5-.47v-5.7h.85c1.24,0,1.87,.83,2.34,1.74,.58,1.1,.93,2.57,1.41,4,.1,.35,.33,.43,.62,.43h1.51c.44,0,.5-.27,.35-.64-.6-1.66-1.41-3.67-1.74-4.37-.44-.91-1.22-1.78-2.22-1.99,2.14-.33,3.05-1.78,3.05-3.42,0-1.39-.72-3.54-4.23-3.54h-3.65c-.27,0-.5,.22-.5,.5v13c0,.25,.23,.47,.5,.47h0Zm1.7-12.04h1.89c1.39,0,2.05,.91,2.05,1.91,0,1.3-.85,2.17-2.28,2.17h-1.66v-4.08h0Z"/><path class="cls-1" d="M270.88,112.51c-.16-.49-.55-.75-.97-.75h-2.87c-.42,0-.88,.29-1.01,.75l-5.83,20.29c-.13,.49,.1,.91,.59,.91h2.11c.46,0,.85-.3,.95-.72l1.24-4.82h6.87l1.3,4.82c.13,.42,.55,.72,1.01,.72h2.28c.49,0,.75-.42,.59-.91l-6.26-20.29h0Zm-5.05,12.67l2.12-8.57c.23-.91,.39-2.15,.49-3.06,.13,.88,.26,2.18,.49,3.06l2.25,8.57h-5.34Z"/><path class="cls-1" d="M349.68,60.19h-3.5c-.27,0-.5,.23-.5,.5v.97c0,.27,.23,.5,.5,.5h1.82v4.08c-.42,.12-.85,.19-1.33,.19-2.2,0-3.5-1.33-3.5-5.06s1.12-5.26,3.34-5.26c1.08,0,1.8,.25,2.53,.6,.25,.13,.5,0,.6-.23l.41-.89c.12-.25,.04-.5-.23-.64-.91-.48-2.09-.79-3.31-.79-3.61,0-5.68,2.75-5.68,7.07s1.7,7.15,5.64,7.15c1.12,0,2.28-.21,3.07-.5,.5-.19,.64-.4,.64-.87v-6.32c0-.27-.23-.5-.5-.5h0Z"/><path class="cls-1" d="M414.35,125.84c-.68-1.43-1.92-2.8-3.48-3.13,3.36-.52,4.79-2.8,4.79-5.37,0-2.18-1.14-5.57-6.64-5.57h-5.73c-.42,0-.78,.36-.78,.78v20.42c0,.39,.36,.75,.78,.75h1.89c.42,0,.78-.36,.78-.75v-8.96h1.34c1.95,0,2.93,1.3,3.68,2.74,.91,1.72,1.47,4.04,2.22,6.29,.16,.55,.52,.69,.98,.69h2.38c.68,0,.78-.42,.55-1.01-.94-2.6-2.21-5.76-2.74-6.87h0Zm-5.79-4.63h-2.61v-6.42h2.97c2.18,0,3.22,1.43,3.22,3,0,2.05-1.33,3.42-3.58,3.42h0Z"/><path class="cls-1" d="M360.84,102.04c-1.63,0-3.13-.49-4.36-.94-.46-.16-.88,.07-.98,.49l-.39,1.63c-.1,.39,.07,.82,.49,.98,1.36,.52,3.42,.95,5.31,.95,4.53,0,7.2-2.64,7.2-6.45,0-3.45-1.99-4.95-4.3-6.03l-1.76-.81c-1.73-.81-3.19-1.47-3.19-3.19s1.08-2.87,3.19-2.87c1.47,0,2.35,.33,3.39,.68,.42,.13,.78-.1,.88-.49l.36-1.46c.1-.39-.03-.81-.42-.95-1.1-.39-2.7-.78-4.27-.78-4.17,0-6.64,2.57-6.64,6.03,0,3.16,1.82,4.53,3.84,5.47l1.34,.62c2.02,.94,4.04,1.82,4.04,4.04,0,2.02-1.56,3.09-3.71,3.09h0Z"/><path class="cls-1" d="M345.92,97.06c-.69-1.43-1.93-2.8-3.49-3.13,3.35-.52,4.79-2.8,4.79-5.38,0-2.18-1.14-5.57-6.65-5.57h-5.73c-.42,0-.78,.36-.78,.78v20.43c0,.39,.36,.75,.78,.75h1.89c.42,0,.78-.36,.78-.75v-8.96h1.33c1.96,0,2.93,1.3,3.68,2.74,.91,1.73,1.46,4.04,2.21,6.29,.16,.55,.52,.68,.98,.68h2.38c.69,0,.78-.42,.56-1.01-.94-2.61-2.22-5.77-2.74-6.87h0Zm-5.8-4.63h-2.6v-6.41h2.96c2.18,0,3.22,1.43,3.22,3,0,2.05-1.34,3.42-3.58,3.42h0Z"/><path class="cls-1" d="M379.49,104.16v-20.39c0-.42-.36-.78-.78-.78h-2.02c-.43,0-.78,.36-.78,.78v20.39c0,.42,.35,.78,.78,.78h2.02c.42,0,.78-.36,.78-.78h0Z"/><path class="cls-1" d="M364.82,122.06c2.51-.82,3.58-2.41,3.58-4.72,0-3.23-2.21-5.57-5.99-5.57h-6.48c-.43,0-.78,.36-.78,.78v20.42c0,.39,.36,.75,.78,.75h6.84c4.17,0,6.58-2.25,6.58-6.19,0-2.74-1.56-4.98-4.53-5.47h0Zm-6.22-7.4h3.06c2.15,0,3.19,1.14,3.19,3.06s-1.14,3.1-3.39,3.1h-2.87v-6.16h0Zm3.71,16.03h-3.71v-7.13h3.16c2.44,0,3.88,1.56,3.88,3.55,0,2.22-1.27,3.58-3.32,3.58h0Z"/><path class="cls-1" d="M391.57,111.76h-1.86c-.49,0-.81,.26-.81,.78v14.2c0,3.32-1.37,4.3-3.78,4.3-2.67,0-3.62-1.63-3.62-4.49v-14.01c0-.53-.29-.78-.78-.78h-1.89c-.45,0-.75,.29-.75,.78v14.36c0,4.43,2.28,7,7.1,7s7.17-2.47,7.17-7v-14.36c0-.49-.32-.78-.78-.78h0Z"/><path class="cls-1" d="M343.65,130.56h-7.69v-6.97h6.64c.42,0,.81-.36,.81-.82v-1.37c0-.43-.39-.75-.81-.75h-6.64v-5.83h7.43c.46,0,.78-.39,.78-.82v-1.46c0-.43-.36-.78-.78-.78h-10.1c-.42,0-.78,.36-.78,.78v20.39c0,.42,.36,.78,.78,.78h10.36c.43,0,.81-.36,.81-.78v-1.59c0-.43-.39-.78-.81-.78h0Z"/><path class="cls-1" d="M399.87,82.99h-12.7c-.43,0-.81,.36-.81,.78v1.6c0,.42,.39,.75,.81,.75h4.62v18.05c0,.42,.36,.78,.78,.78h1.89c.42,0,.78-.36,.78-.78v-18.05h4.62c.43,0,.75-.33,.75-.75v-1.6c0-.42-.32-.78-.75-.78h0Z"/><path class="cls-1" d="M378.6,67.75v-1.01c0-.27-.25-.5-.52-.5h-4.89v-4.44h4.23c.27,0,.52-.23,.52-.52v-.87c0-.27-.25-.47-.52-.47h-4.23v-3.71h4.73c.29,0,.5-.25,.5-.52v-.93c0-.27-.23-.5-.5-.5h-6.43c-.27,0-.5,.23-.5,.5v12.97c0,.27,.23,.5,.5,.5h6.59c.27,0,.52-.23,.52-.5h0Z"/><path class="cls-1" d="M305.46,82.99h-1.95c-.52,0-.85,.29-.98,.81l-3.75,14.73c-.26,1.04-.49,2.77-.68,4.27-.13-1.5-.42-3.23-.68-4.27l-3.75-14.76c-.13-.52-.49-.78-1.01-.78h-2.25c-.49,0-.75,.42-.62,.91l6.02,20.33c.13,.42,.56,.71,.98,.71h2.48c.42,0,.85-.29,.98-.71l5.83-20.36c.13-.46-.13-.88-.62-.88h0Z"/><path class="cls-1" d="M297.72,121.05h-5.5c-.43,0-.78,.36-.78,.78v1.53c0,.42,.36,.78,.78,.78h2.86v6.42c-.65,.19-1.34,.29-2.08,.29-3.45,0-5.51-2.08-5.51-7.95s1.76-8.27,5.24-8.27c1.7,0,2.83,.39,3.97,.94,.39,.2,.78,0,.95-.36l.65-1.4c.2-.39,.07-.78-.36-1.01-1.43-.75-3.29-1.24-5.21-1.24-5.66,0-8.93,4.33-8.93,11.11s2.67,11.24,8.86,11.24c1.76,0,3.58-.32,4.82-.78,.78-.29,1.01-.62,1.01-1.37v-9.93c0-.42-.36-.78-.78-.78h0Z"/><path class="cls-1" d="M426.94,68.25c.35,0,.47-.25,.27-.58l-4.46-7.15,4.04-5.66c.17-.25,.15-.58-.27-.58h-1.57c-.31,0-.5,.08-.67,.33l-3.65,5.54v-5.37c0-.27-.23-.5-.5-.5h-1.2c-.27,0-.5,.22-.5,.5v13c0,.25,.23,.47,.5,.47h1.2c.27,0,.5-.23,.5-.47v-6.78l3.92,6.88c.17,.29,.39,.37,.7,.37h1.68Z"/><path class="cls-1" d="M281.11,82.99h-2.02c-.42,0-.78,.36-.78,.78v20.39c0,.42,.36,.78,.78,.78h2.02c.42,0,.78-.36,.78-.78v-20.39c0-.42-.36-.78-.78-.78h0Z"/><path class="cls-1" d="M326.76,54.28h-1.06c-.27,0-.5,.23-.5,.47l.02,8.06c0,.98,.1,2.26,.21,3.34-.29-1.01-.54-2.03-.91-2.94l-3.5-8.56c-.11-.23-.39-.37-.66-.37h-1.95c-.27,0-.5,.2-.5,.47v13.01c0,.25,.23,.48,.5,.48h1.1c.27,0,.5-.22,.5-.48l-.02-8.21c0-.77-.19-2.43-.29-3.48,.27,1.06,.54,2.22,.91,3.09l3.65,8.68c.11,.25,.29,.39,.56,.39h1.95c.27,0,.52-.22,.52-.48v-13.01c0-.25-.25-.47-.52-.47h0Z"/><path class="cls-1" d="M314.87,111.76h-5.18c-.42,0-.78,.36-.78,.78v20.39c0,.42,.36,.78,.78,.78h5.31c6.19,0,8.08-4.14,8.08-11.11,0-8.37-3.58-10.85-8.21-10.85h0Zm-.42,18.96h-2.08v-16.06h2.15c1.4,0,2.67,.49,3.45,1.5,.98,1.27,1.46,3.16,1.46,6.64,0,6.55-1.79,7.92-4.98,7.92h0Z"/><path class="cls-1" d="M324.82,101.78h-7.69v-6.97h6.64c.42,0,.81-.36,.81-.81v-1.37c0-.42-.39-.75-.81-.75h-6.64v-5.83h7.43c.46,0,.78-.39,.78-.81v-1.47c0-.42-.36-.78-.78-.78h-10.1c-.42,0-.78,.36-.78,.78v20.39c0,.42,.36,.78,.78,.78h10.36c.42,0,.81-.36,.81-.78v-1.6c0-.42-.39-.78-.81-.78h0Z"/><path class="cls-1" d="M415.56,83.74c-.16-.49-.55-.75-.98-.75h-2.87c-.42,0-.88,.29-1.01,.75l-5.83,20.29c-.13,.49,.1,.91,.59,.91h2.11c.46,0,.85-.29,.95-.71l1.24-4.82h6.87l1.3,4.82c.13,.42,.56,.71,1.01,.71h2.28c.49,0,.75-.42,.58-.91l-6.26-20.29h0Zm-5.05,12.67l2.11-8.57c.23-.91,.39-2.15,.49-3.06,.13,.88,.26,2.18,.49,3.06l2.25,8.57h-5.34Z"/><path class="cls-1" d="M312.96,61.33c0-4.83-1.66-7.17-4.85-7.17s-4.89,2.47-4.89,7.17,1.66,7.05,4.89,7.05,4.85-2.32,4.85-7.05h0Zm-4.87,5.22c-1.95,0-2.57-1.78-2.57-5.28,0-2.76,.27-5.35,2.57-5.35,2.13,0,2.59,2.36,2.59,5.35,0,3.23-.54,5.28-2.59,5.28h0Z"/><path class="cls-1" d="M459.88,36.92H47.52c-4.46,0-8.08,3.63-8.08,8.08v97.96c0,4.46,3.62,8.08,8.08,8.08h56.35c-.4,2.29-.03,8.83,.31,15.59l.07,1.27c.36,6.26,1.01,12.06,1.83,13.52,.1,.18-.53,.27,3.54-5.82l.99-1.52c4.38-6.9,10.55-15.24,16.43-20.64l.39-2.4h1.33l-.27,2.4c1.74,.48,4.91,4.66,13.18,14.7l1.45,1.76c4.7,5.7,10.41,11.87,10.68,11.45,1.53-2.35,18.53-28.49,19.72-30.31H459.88c4.45,0,8.08-3.62,8.08-8.08V45c0-4.46-3.62-8.08-8.08-8.08h0ZM47.52,148.85c-3.25,0-5.88-2.63-5.88-5.88V45c0-3.25,2.63-5.88,5.88-5.88h40.69c-15.15,13.08-24.79,32.67-24.79,54.58s9.91,42.07,25.43,55.14H47.52Zm418.23-5.88c0,3.25-2.63,5.88-5.88,5.88H184.3c15.52-13.07,25.43-32.92,25.43-55.14s-9.64-41.51-24.79-54.58H459.88c3.25,0,5.88,2.63,5.88,5.88v97.96h0Z"/><g><path class="cls-2" d="M134.64,82.94l.69-.08c.27,0,.33-.87,.59-1.41,.07-.13,.95-.82,1.63-.96,.96-.15,2.05-.37,3.35-.39v-.8l-1.59,.03-.55-.26,.33-.8c-.07-.13-.28-.3-.49-.32-.62-.06-1.07,1.55-2.65,1.71-2.11,.22-2.9-1.41-3.61-2.8,.07-.13-.23-1.4-.3-1.53l-.54,.28c.03,2.2,.9,4.78,3.11,5.47l.03,1.86Z"/><path class="cls-2" d="M131.58,120.31c-.27,0-.38,.64-.6,.49-.56-.38-1.2-.96-1.23-1.76l-1.71,.06c-.02-.47-1.08-.17-.93,.45,.2,0,1.01,.08,1.01-.05,.71,.77,1.47,.82,1.76,1.34,.44,.78,.2,1.66,.83,2.04,.15-1.6,1.6-1.32,1.56-2.45,0-.2-.48-.12-.69-.11Z"/><path class="cls-2" d="M150.02,84.77c-.25,.14-.59,.62-.59,.62,1.04,4.64,4.12,4.78,4.12,4.78l.59-.62s-3.09-.14-4.12-4.79Z"/><path class="cls-2" d="M151.77,77.63c-.42-.59-1.12-2.5-1.86-2.55-2.26-.16-3.79,1.19-4.96,1.28-.63,.05,.47-.74,.47-.74,.2-.6-3.99-.79-3.99-.79,0,0-3.09,0-3.27,1.39v.53l2.57,.43c1.1,.31,1.3-.09,2.61,.08l2.4-.04,2.12-.64,1.13,.11c.34,0,.67,.47,.8,.72,.78,1.52,1.59,1.7,2.75,2.81,2.19,2.1,2.22,2.94,3.16,2.54-.14-.16-1.42-2.43-1.93-3.1-.84-1.05-1.25-1.05-2.02-2.03Z"/><path class="cls-2" d="M135.08,100.87l-.54-1.84-.62,.02c.04,.4,.17,.61,.31,.99,.21,.58-.24,.88,.8,1.37l.07,1.86h.59l-.09-2.45-.52,.05Z"/><path class="cls-2" d="M194.8,101.75c.07-7.6-4.57-5.05-6.15-8.91-1.5-3.67,1.25-7.3-1.86-9.93-1.11-.94-2.11-.97-3.35-1.75-3.31-2.08-5.76-4.94-7.04-6.95-1.24-1.96,.09-3.92-1.17-5.96-.67-1.08-1.7-1.29-2.21-2.46-.52-1.18,.6-2.29-.25-3.26-1.43-1.62-2.78-2.9-3.93-6.53-3.51-11.01-8.02-9.58-9-10.21-2.71-1.74-7.38-3.85-10.8-4.76-4.02-1.06-6.43-1.41-9.52-1.47-4.81-.1-5.74,1.55-6.47,1.49-9.42-.8-13.78,2.08-19.24,4.8-6.8,3.39-10.51,9.49-12.23,15.02-.86,2.74-1.63,4.25-2.63,7.09-.63,1.75-1.68,2.92-3.16,3.71-1.35,.71-2.28,1.48-4.13,1.54-1.58,.05-3.63,.89-4.05,1.74l.11,3.05s.89-.27,2.34-1.6c1.13-1.04,2.13,.06,4.68,.37,5.97,.19,9.24-3.48,9.59-4.26,.51-1.08,0-4.06,.66-4.55l.96-.03c-.22,1.79,.13,3.91-1.31,5.84-1.79,2.43-4.23,3.07-4.89,3.3-3.87,1.38-5.94,.83-7.88,.59-2.24-.28-.16,3.2-6.56,2.52-2.15-.23-4.34,1.7-4.4,3.48-.06,1.91,.14,9.12,.35,9.62l3.14,2.73s-.71-3.55,1.65-2.53c3.3,1.42,8.99,.06,9.53-.36-1.2,1.11-1.36,2.34-2.28,3.51-2.04,2.47-6.21,3.86-5.2,8.34,2.1,9.32-2.27,8.85-2.27,8.85-2.74,.09-4.75-3.77-4.75-3.77l.2,4.12c-.04,2.13,4.07,6.91,6.9,5.74l1.86,3.62c6.71,1.09,.05,6.16,.12,8.02l2.79,5.81c.14-.48,.42-6.14,3.18-5.91,2.59,.22,2.83,2.56,2.83,2.56-1.76,1.32-2.08,2.95-1.61,4.57h0c.8,2.76,3.85,5.49,5.98,6.6,0,0,.42-.76,1.18-.92-1.67-.61-2.72-1.85-2.4-3.01,.33-1.19,.58-.99,1.57-1.3,1.24-.39,1.58-.05,2.72-.62,1.22-.61,1.66,1.1,2.77,.77,.64-.19,1.54-.86,2.46-1.52,0,0,.62-.43,.74-.52-1.98,2.85-4.87,7.74-8.26,12.23-.76,1.01-.32,8.53,.07,16.34l.07,1.27c.36,6.26,1.01,12.06,1.83,13.52,.1,.18-.53,.27,3.54-5.82l.99-1.52c4.38-6.9,10.55-15.24,16.43-20.64l1.32-8.2c.33,.07,.68,.1,1.04,.09l-.92,8.1c1.74,.48,4.91,4.66,13.18,14.7l1.45,1.76c4.7,5.7,10.41,11.87,10.68,11.45,1.59-2.43,19.79-30.42,19.79-30.42,0,0-4.01-7.2-6.11-12.35h0c-.32-.8-.61-1.55-.82-2.21,1.73-1.7,1.81-.42,5.4,2.2h0c.44,.32,.93,.67,1.49,1.03,3.93,2.54,5.49,.21,5.49,.21,0,0-.83-.49-1.7-1.24h-.01c-.95-.83-1.94-1.95-1.95-3.07-.02-4.79,1.95-4.62,2.98-4.49,2.43,.32,1.3,2.49,1.3,2.49l2.56-.02s.84-.5,1.1-1.04c1.86-3.79-6.5-5.85-7.87-7.04-1.39-1.21-.55-3.58-.55-3.58,4.32,5.3,7.05,4.01,11.5,2.8l4.54-4.55c-4.83,.57-10.03,4.87-13.76-6.17l.92-.82c2.2,3.93,4.58,5.44,7.47,5.6l6.79-7.04c-7.9,5.47-7.34-4.67-7.34-4.67,8.08-.41,9.75-3.63,9.76-5.2Zm-104.46,18.06s-.08-.33-.36-.52c2.88-.1,5.81-1.6,5.69-4.93,0,0,.58-.09,.59,.18,.12,3.33-3.04,5.17-5.92,5.27Zm34.88,32.17c-13.13,14.82-18.51,25.3-18.51,25.3-1.89-8.7-1.17-25.57-1.17-25.57,0,0,4.87-7.39,9.06-13.13h0s.01-.02,.02-.03c0,.01,.01,.03,.01,.03,1.74,5.19,8,5.87,9.93,6.59,.65,.25,1.69,.21,1.69,.21l-1.03,6.6Zm-5.71-14.78c.02,.53,.08,.94,.11,1.38h0c.02,.3,.02,.61-.02,.97-.1-.25-.28-.62-.45-.97-.22-.44-.43-.84-.43-.84,.13-.07,.62-1.61,.62-1.8,.22-1.34,.66-2.5,1.73-2.85-.12,.58-.53,.95-1.02,2.01-.5,1.09-.57,1.22-.54,2.11Zm51.63,13.48l-18.05,27.4c-.96-1.11-20.58-24.83-22.66-25.76l.78-5.81c10.85-1.26,17.72-4.63,22-7.94h0c5.21-4.05,6.56-8.02,6.56-8.02,0,0,1.4-2.21,1.64-1.5,1.05,3.2,2.38,6.5,3.72,9.53h0c2.98,6.71,5.99,12.1,5.99,12.1Zm.14-40.86c-2.05,.2-3.21-1.49-3.21-1.49-2.59,4.49-5.02,1.64-5.02,1.64,.01-3.2-4.09,16.26-4.72,19.25-.79,1.49-3.06,5.6-8.62,9.34h0c-2.68,1.81-6.14,3.54-10.56,4.85l.5-.27c1.16-.66,1.52-1.65,2.33-2.8,.49-.7,.93-1.16,1.28-1.76h0c.15-.26,.28-.55,.39-.9,.08-.24-.2-.66-.52-1.19,.61-.03,2.59-1.74,3.18-2.34,1.77-1.77,3.3-2.78,4.87-4.61,2.02-2.42,3.88-3.75,5.36-6.15,1.03-1.68,1.39-2.97,1.66-5.07,.44-3.06,1.8-6.92,1.96-10.16-1.03,1.81-1.46,3.1-1.81,4.51-.6,2.24-.69,3.58-1.3,5.63-.61,2.05-.82,3.64-2.13,5.15-1.11,1.3-2.3,2.24-3.56,3.17-3.57,2.69-5.89,6.74-10.89,7.78-2.45-1.81-5.54-3.64-6.39-3.53,0,0-1.1,.3-1.77,.33l-.28,1.75s.99,.39,.97,.16c-.1-1.06,.85-1.14,.8-.63-.05,.53,.82,3.84-.56,5.55-.25,.31,.12-4.53-1.37-3.95l-.54,2.22-.68,.03s.12-.47,.07-1.87c-.05-1.35-.45-2.49-2.54-3.55-.44-.23-.47,2.72-.9,3.2l-1.55,.72c-.29-.97-.7-2.24-.22-2.26,1.44-.05,.79-1.25,1.16-2.1,.24-.55,.65-.7,.56-1.43-.38-2.91,.06-6.55-.42-6.53-.4,0-.73,.22-1.03-.03-.31-.26-.04-1-.04-1-1.5,.18-.87,6.36-.87,6.36-.63,.87-1.94,1.75-2.56,2.37,0,0-.46,.35-.56,.31-1.76-.01-3.56,2.97-3.56,2.97-.68,.15-3.03-4.03-3.13-3.95-.32-1.38,.29-.45-.8-3.45-.17-1.14-1.43-5.73-1.6-5.99-2.5-2.52-2.22-13.65-3.3-16.45-.65-1.68-2.91-2.23-3.14-4.21-.4-3.48,.18-5.01,.8-8.15,.18-.9,.03-1.48,.46-2.3,.51-.94,1.06-1.72,2.19-1.77,1.02-.04,1.24,.96,2.11,1.46,.75,.44,1.09,.97,1.96,1.06,3.17,.36,2.86-.63,2.86-.63l1.55-.85c-.49-.32-1.28,.24-2.12,.28-.94,.04-1.52,.11-2.41-.18-.91-.3-2.62-.86-1.9-1.46,.5-.43,.78,.77,1.72,.07,0,0-1.52-1.29-1.04-2.3-.3-.3,.15-.71,.51-.95,.32-.2,.69-.22,.95-.23,0,0-.38,1.4-.06,2.2,.37,.91,1.04,1.36,2.05,1.59,.62,.15,1.04,.07,1.64-.12,.89-.29,1.55-.65,1.73-1.59,.11-.57,.04-.93,.22-1.47,0,0,.58,.85,1.15,1.36,.36,.32,0,.78,.25,1.19,.18,.28,.37,.41,.71,.51,.46,.14,.85,.11,1.63-.59,.13-.26,.22-.39,.04-.73-.37-.72-.87,.7-3.38-2.35-.57-.69-1.21-.77-2.09-.99-1.06-.27-1.66-.34-2.82-.17-.31,.11-.38-.02-.71-.57,0,0,.28-.35,.53-.49,1.4-.75,3.36,.08,4.1-.54-1.1-.23-.58-.48-1.05-.56-1.59-.28-1.17-.16-3.64-.07,0,0-1.43,.25-2.3,1.01-.76,.66-1.65,1.79-1.65,1.79-.33,.17-.61-.53-.71-.65,0,0,.81-1.86,1.75-2.72,.98-.89,1.88-1.13,3.03-1.64,1.03-.46,1.78,.11,2.89,.3,1.22,.21,1.73,.47,3.05,.82,.89,.24,.76,1.34,1.64,1.68,.23,.09,.44-.05,.62,.11,.2,.18,.13,.46-.05,.67-.38,.44-.95-.09-1.52-.28-.33-.11-.42-.39-.77-.44-.24-.03-.37,.06-.62,.09-.82,.11,1.05,.72,1.62,1.28,.68,.66,.58,1.58,1.51,1.88,.43,.14,.78-.13,1.17,.09,.48,.28,.48,.73,.52,1.25,.02,.22,.03,.41,.01,.6-.04,1.5-1.14,2-1.44,2.31-1.05,1.12-.47,5.92-.33,8.01,0,0-2.69,4.66-.84,7.01,.57,.72,.57,.74,2.11,2.08,0,0-1.1,3.17-1.92,3.37-.75-.17-4.88,1.29-5.73,4.11l-.11,.76c0,.29-2.13,.44-3.71-1.02-.44-.4-.75,2.9-.07,4.72,.3,.88,.77,2.51,3.06,1.92,.78-.04,2.4-.36,2.96-.99,.14,.14,3.88,2.21,5.45,2.16,2.04-.07,2.85-1.33,2.84-1.62,0,0-.82-.04-1.78,.06-3.32,.35-3.07-1.49-3.07-1.49,1.28-.78,1.41-.97,2.96-.73,1.25,.19,1.44,.27,2.19,.65,.15,.02,.56,.02,.75-.05,1.01-.35,2.07-1.03,4.42-.62,.53,.09,2.39,1.27,4.36,.51l-.57-.24,1.02,.03-.45,.21c1.1,.42,.6-.12,1.9-.06,1.72,.07,1.03,3.89,5.26,3.28,1.91-.27,1.53-7.12,1.53-7.12l-.89,.03c.01,2.33-.74,3.9-1.36,3.95-1.37,.11-1.37-1.46-4.15-2.62,0,0-.95-1.21,.36-1.06,1.03,.12,1.13,1.99,3.72,1.4l.02-2.08c-3.91,.14-3.88-3.52-8.05-3.45-1.41,.02,.45,1.18-1.26,1.31-1.16,.09-.54-.64-2.56-.31-.55,.09-1.43-1.28-1.31-2.13,.12-.8,.89-.25,1.06-1.04,0,0-.98-2.86,.95-2.72,.93,.06,2.63,2.71,3.55-.39,.48-.02-.42-.12-.42-.12-.24-.21-.17,1.01-.94,.63-1.26-.62-.8-1.17-2.78-.97-2.88,.3-2.05,3.12-2.86,2.57-4.29-2.92-6.13-4.52-3.49-9.54l.38,.99c-.17-2.99-.55-7.98,.08-9.46,.27-.63,.38-1.83,.53-2.75,.49-2.96,.47-6.4-.59-6.77-3.3-1.15-2.5-4.19-5.91-4.58l-6.25,.18s-.88-3.55,3.2-4.76c0,0-.47-4.79,.89-6.02,1.06-.97,3.02,.03,2.22-3.14-.14-.58-.53-.54-.86-.91-.75-.84-1.11-.36-1.86-2.2-.48-1.18,2.23-3.01,2.23-3.01,9.52,1.53,12.74-6.69,12.74-6.69,3.53,6.34,11.43,5.63,11.43,5.63,1.91,.06,3.95,.12,5.79,2.34,1.27,1.52,1.52,2.65,3.53,3.69,2.08,1.07,3.8-.26,3.8-.26-2.18-.18-3.71-1.35-4.64-3.16-3.37-6.54-6.61-6.17-7.52-5.9,.81-.38,.76-1.19,3.66-.8,4.21,.56,6.27,7.59,8.98,7.94,4.13,.52,4.03,1.25,3.06,5.01-1.21,4.71-1.42,9.02-.04,14.53,.84,3.34,3.28,4.7,3.58,8.14,.47,5.45-1.9,7.16-.09,12.93,1.24,3.95-.8,8.42,3.66,10.53l.52-.68c-4.33-2.38-1.59-6.08-1.59-6.08-.04,6.53,5.32,6.88,5.32,6.88-1.78-1.2-.35-2.12-.35-2.12,2.31-.75,3.58,3.42,.68,3.71Zm-56.45-24.98s.69,.28,.92,.64c.14,.22,.16,.66,.16,.66-.36,.55-1.74-.61-1.08-1.3Zm2.75,.17h.41l-.38,.87-.03-.87Zm8.62,26.81c.72-.75,.29-1.36,.77-1.29,.62,.09,1.03,1.25,1.03,1.25,0,0,.04,.48,.79,1.16,.8,.73,3.13,.84,4.19,1.33l2.22,2.54c-1.06-.14-1.95-.66-2.65-1.06-3.09-1.94-5.35,.5-5.35,.5-2.04-1.9-2.9-1.42-6.58,.48-1.02,.53-1.64-.32-.63-.48,.28-.15,1.42-2.32,2.19-2.51,1.21-.3,2.96-.83,4.01-1.92Z"/><path class="cls-2" d="M154.34,84.37c-.31-.1-.77-1.26-1.17-1.71l-.85,.15c.36,1.06,1.61,1.37,1.35,2.24-.04,.14,.9,.32,1.3,.04,0-.53-.08-.66-.16-1.26l-.47,.54Z"/><polygon class="cls-2" points="139.54 89.7 139.56 90.29 140.52 90.28 140.53 91.16 141.08 91.15 140.97 89.67 139.54 89.7"/><path class="cls-2" d="M146.12,84.52c-.55-.19-1.45-.57-2.48-.62l-2.19,.04c-.62,.08-1.5,.7-1.5,.7-1.06,.28-.97-.92-.97-.92,.47-.63,.53-.81,2.44-1.38l2.54-.18c-.11-.21,.15-.74,.15-.74-4.73,.02-6.2,2.02-6.5,2.32-.14,.13-.94,1.15-.94,1.35,0,.07,.9,.19,.9,.19l.26-.54c.35,.06,.82-.02,.83,.31,.01,.8-.61,.48-.59,1.41h-.55c-.82,.03-1.72-.23-1.7,.71,0,.27-.06,.6,.02,1l1.51,.04-.22-.53s.06-.34,.06-.53l.61-.28c.83,.12,1.16,1.9,2.87,1.6,.07-.01-.04-.59-.04-.59-1.58-.3-1.66-1.17-1.66-1.17,1.14-1.82,3.05-1.86,3.06-1.52l-.19,.8c.03,1.8,.47,3.39,2.59,3.35,1.51-.03,2.73-.85,3.12-2.12,.34,.19,.66,.62,.84,1.05,.28,.66,.01,.73,.02,1.27,0,.2-.82,.15-.53,1.08l1.03,.05,.8-1.28c-.03-1.67-1.78-4.23-3.58-4.86Zm-1.44,3.76c-2.26,.18-1.89-2.16-1.55-2.44,0,0-.3,2.41,1.89,2.16l-.34,.27Zm-.38-1.78v-.73l1.29-.02v.73l-1.29,.02Z"/></g></g></g></svg>